<svg xmlns="http://www.w3.org/2000/svg" viewBox="0 0 244.79 39.69"><defs><style>.cls-1{fill:#303030;}</style></defs><g id="Layer_2" data-name="Layer 2"><g id="Layer_1-2" data-name="Layer 1"><path class="cls-1" d="M14.89,13.66a1,1,0,0,1,0,1.41.91.91,0,0,1-.69.29H1a.91.91,0,0,1-.69-.29A1,1,0,0,1,0,14.36V1A1,1,0,0,1,.29.29.94.94,0,0,1,1,0a1,1,0,0,1,.71.29A1,1,0,0,1,2,1V13.37H14.2A.94.94,0,0,1,14.89,13.66Z"/><path class="cls-1" d="M60.64,1a1,1,0,0,1,.3.71v8.82a5.36,5.36,0,0,1-1.62,3.92,5.23,5.23,0,0,1-3.86,1.62H51.23a5.25,5.25,0,0,1-3.87-1.62,5.35,5.35,0,0,1-1.61-3.92V1.69A1,1,0,0,1,46,1a.94.94,0,0,1,.69-.29,1,1,0,0,1,.71.29,1,1,0,0,1,.28.71v8.82a3.42,3.42,0,0,0,1,2.51,3.34,3.34,0,0,0,2.48,1h4.23a3.35,3.35,0,0,0,2.48-1,3.46,3.46,0,0,0,1-2.51V1.69a1,1,0,0,1,1-1A.94.94,0,0,1,60.64,1Z"/><path class="cls-1" d="M84.8,1a.94.94,0,0,1,.29.69V15.05a1,1,0,0,1-.61.91.85.85,0,0,1-.38.09,1,1,0,0,1-.7-.3L71.87,4.08v11a.91.91,0,0,1-.29.7,1,1,0,0,1-.69.3.94.94,0,0,1-.69-.3.92.92,0,0,1-.3-.7V1.67a1,1,0,0,1,.61-.92A1,1,0,0,1,71.58,1L83.12,12.65v-11A.94.94,0,0,1,83.4,1a.92.92,0,0,1,.7-.3A.89.89,0,0,1,84.8,1Z"/><path class="cls-1" d="M96.36,3.66a3.25,3.25,0,0,0-1,2.37v4.66a3.27,3.27,0,0,0,1,2.38,3.16,3.16,0,0,0,2.35,1h9.07a1,1,0,0,1,.7.28,1,1,0,0,1,.29.71,1,1,0,0,1-.29.7,1,1,0,0,1-.7.3H98.71A5.08,5.08,0,0,1,95,14.47a5.22,5.22,0,0,1-1.55-3.78V6A5.25,5.25,0,0,1,95,2.25,5.07,5.07,0,0,1,98.71.68h9.07a.94.94,0,0,1,.7.29,1,1,0,0,1,0,1.41.94.94,0,0,1-.7.29H98.71A3.16,3.16,0,0,0,96.36,3.66Z"/><path class="cls-1" d="M132,1a1,1,0,0,1,.28.71V15.05a1,1,0,0,1-.28.71,1,1,0,0,1-1.39,0,1,1,0,0,1-.29-.71V9.36H119.06v5.69a1,1,0,0,1-.3.71.91.91,0,0,1-.69.29,1,1,0,0,1-1-1V1.69a1,1,0,0,1,.28-.71,1,1,0,0,1,.7-.29.91.91,0,0,1,.69.29.94.94,0,0,1,.3.71V7.37H130.3V1.69a1,1,0,0,1,1-1A1,1,0,0,1,132,1Z"/><path class="cls-1" d="M155.23,1.88a3.93,3.93,0,0,1,1.18,2.88V5.5a3.78,3.78,0,0,1-1.11,2.73,3.69,3.69,0,0,1-2.71,1.13H143.2v5.69a1,1,0,0,1-1,1,1,1,0,0,1-.71-.29,1,1,0,0,1-.28-.71V1.69a1,1,0,0,1,.28-.71,1,1,0,0,1,.71-.29h10.16A3.84,3.84,0,0,1,155.23,1.88Zm-.78,2.88a2,2,0,0,0-.61-1.47,2,2,0,0,0-1.46-.62H143.2v4.7h9.39a1.77,1.77,0,0,0,1.31-.54,1.84,1.84,0,0,0,.55-1.33Z"/><path class="cls-1" d="M196.36,2.6a6.3,6.3,0,0,1,1.9,4.62V9.51a6.32,6.32,0,0,1-1.9,4.62,6.2,6.2,0,0,1-4.55,1.92h-7.75a.92.92,0,0,1-.69-.3,1,1,0,0,1-.3-.7V1.67a1,1,0,0,1,.3-.69.86.86,0,0,1,.69-.3h7.75A6.12,6.12,0,0,1,196.36,2.6Zm-.07,4.62A4.37,4.37,0,0,0,195,4a4.27,4.27,0,0,0-3.16-1.34H185V14.06h6.77A4.27,4.27,0,0,0,195,12.72a4.4,4.4,0,0,0,1.32-3.21Z"/><path class="cls-1" d="M231.49,10.37c0-2.64-.87-5.79-5-5.79s-5,3.15-5,5.79.86,5.78,5,5.78S231.49,13,231.49,10.37Zm-5,4.72c-2.68,0-4-1.55-4-4.73s1.31-4.72,4-4.72,4,1.54,4,4.72S229.16,15.09,226.48,15.09Z"/><path class="cls-1" d="M244.75,7.52c0-2.28-1.94-2.75-3.56-2.75H235.6V5.82h5.59c1.5,0,2.4.78,2.4,2.08,0,.92-.42,2-2.42,2H238v.85h3.24c2.19,0,2.43,1.42,2.43,2,0,1.32-.9,2.11-2.41,2.11h-5.66V16h5.66c2.29,0,3.55-1,3.55-2.74a2.28,2.28,0,0,0-1.45-2.38l-1.2-.5,1.2-.51A2.21,2.21,0,0,0,244.75,7.52Z"/><path class="cls-1" d="M217,12.6h-6.58c-1.26,0-1.36-.88-1.36-1.15a1.33,1.33,0,0,1,.35-.93l3.34-4a1.76,1.76,0,0,1,1.54-.72h3.06c-.15-.75-.64-1.05-1.61-1.05h-1.36A2.64,2.64,0,0,0,211.91,6l-3.55,4.24a2.22,2.22,0,0,0-.64,1.63c0,.77.18,1.59,2.29,1.59h6.3V16h1.08V12.6H217Z"/><polygon class="cls-1" points="215.28 6.37 215.28 6.37 215.28 6.38 215.28 6.38 215.28 6.37"/><path class="cls-1" d="M38,14.61l-4.57-9L32.32,7.83l3.19,6.29H25.39L30.31,3.88h0l1.08-2.24-.22-.43a1,1,0,0,0-1.76,0L23,14.62a1.06,1.06,0,0,0,0,.76.91.91,0,0,0,.5.57,1.17,1.17,0,0,0,.41.1H37.17A1,1,0,0,0,38,14.61Z"/><path class="cls-1" d="M175.31,14.61l-4.56-9-1.08,2.24,3.19,6.29H162.75l4.92-10.24h0l1.07-2.24-.21-.43a1,1,0,0,0-.89-.55,1,1,0,0,0-.87.56l-6.46,13.4a1.06,1.06,0,0,0,0,.76.93.93,0,0,0,.51.57,1.07,1.07,0,0,0,.4.1h13.35a1,1,0,0,0,.36-.11,1,1,0,0,0,.48-.58A.9.9,0,0,0,175.31,14.61Z"/><path class="cls-1" d="M70.8,39.68h-.56V33.47h.56v5.79h6v.42Z"/><path class="cls-1" d="M80.52,39.69H79.9l4.25-6.2h1.24l4.26,6.2H89l-.76-1.11h-7Zm1.06-1.53H88L85,33.89h-.55Z"/><path class="cls-1" d="M92.88,36.58V33.49h.56v3.09c.06,1.45,1.67,2.61,3.64,2.61s3.58-1.16,3.64-2.61V33.49h.56v3.09c0,1.71-1.88,3.11-4.2,3.11S92.88,38.29,92.88,36.58Z"/><path class="cls-1" d="M112.68,33.47h.55v6h0v.16h-.55l-1.06-.81-6.2-4.8v5.61h-.56v-6.2h.56l7,5.39.29.22Z"/><path class="cls-1" d="M120.87,39.69c-2.31,0-4.19-1.39-4.19-3.1s1.88-3.11,4.19-3.11h4v.4h-3.93c-2,0-3.64,1.2-3.64,2.68s1.63,2.69,3.64,2.69h3.93v.43h-4Z"/><path class="cls-1" d="M128.86,39.68h-.56V33.47h.56v2.9h6.07v-2.9h.56v6.21h-.56v-2.9h-6.07Z"/><path class="cls-1" d="M148,39.69v-6.2h6.73a2.64,2.64,0,0,1,1.57.48,1.46,1.46,0,0,1,.68,1.17,1.67,1.67,0,0,1-1.18,1.46A1.68,1.68,0,0,1,157,38c0,.92-1,1.66-2.25,1.66H148Zm.57-3.32h6.14c.93,0,1.68-.56,1.68-1.24s-.75-1.24-1.68-1.24h-6.14Zm0,2.89h6.14c.93,0,1.68-.55,1.68-1.24s-.75-1.24-1.68-1.24h-6.14Z"/><path class="cls-1" d="M160.49,33.47h.56v6.21h-.56Z"/><path class="cls-1" d="M168.69,39.69c-2.32,0-4.2-1.39-4.2-3.1s1.88-3.11,4.2-3.11h4v.4h-3.93c-2,0-3.64,1.2-3.64,2.68s1.63,2.69,3.64,2.69h3.37V36.78h-3.65v-.41h4.21v3.32h-4Z"/></g></g></svg>