<svg xmlns="http://www.w3.org/2000/svg" viewBox="0 0 509.42 71.21"><defs><style>.cls-1,.cls-2{fill:#fff;}.cls-2{font-size:13.4px;font-family:Impasse;letter-spacing:0.16em;}</style></defs><g id="Layer_2" data-name="Layer 2"><g id="Layer_1-2" data-name="Layer 1"><path class="cls-1" d="M31,28.5A1.93,1.93,0,0,1,31.6,30,2,2,0,0,1,31,31.44a1.92,1.92,0,0,1-1.44.59H2.05a1.92,1.92,0,0,1-1.44-.59A2.12,2.12,0,0,1,0,30V2.14A2.09,2.09,0,0,1,.61.66,2,2,0,0,1,2.05.07,2.06,2.06,0,0,1,3.51.66,2.07,2.07,0,0,1,4.1,2.14V27.89H29.55A2,2,0,0,1,31,28.5Z"/><path class="cls-1" d="M126.2.66a2,2,0,0,1,.61,1.48V20.5a11.13,11.13,0,0,1-3.36,8.16,10.88,10.88,0,0,1-8,3.37h-8.8a10.92,10.92,0,0,1-8-3.37,11.16,11.16,0,0,1-3.35-8.16V2.14A2,2,0,0,1,95.82.66,2,2,0,0,1,97.26.07a2.07,2.07,0,0,1,1.46.59,2.09,2.09,0,0,1,.58,1.48V20.5a7.14,7.14,0,0,0,2.14,5.22,7,7,0,0,0,5.17,2.17h8.8a7,7,0,0,0,5.17-2.17,7.17,7.17,0,0,0,2.13-5.22V2.14A2.1,2.1,0,0,1,123.3.66a2,2,0,0,1,1.46-.59A2,2,0,0,1,126.2.66Z"/><path class="cls-1" d="M176.46.66a1.93,1.93,0,0,1,.61,1.46V30a2,2,0,0,1-1.26,1.9A2,2,0,0,1,175,32a2.17,2.17,0,0,1-1.47-.61l-24-24.29V30a2.05,2.05,0,1,1-4.1,0V2.12A2.07,2.07,0,0,1,146.74.2,2,2,0,0,1,149,.66L173,25V2.12a2,2,0,0,1,.58-1.46A2,2,0,0,1,175,.05,1.86,1.86,0,0,1,176.46.66Z"/><path class="cls-1" d="M200.52,6.25a6.78,6.78,0,0,0-2,4.94v9.68a6.79,6.79,0,0,0,2,5,6.64,6.64,0,0,0,4.9,2.06H224.3a2,2,0,0,1,1.46.59,2.09,2.09,0,0,1,.58,1.48,2,2,0,0,1-.58,1.46,2.09,2.09,0,0,1-1.46.61H205.42a10.58,10.58,0,0,1-7.8-3.28,10.8,10.8,0,0,1-3.23-7.88V11.19a10.88,10.88,0,0,1,3.23-7.88,10.56,10.56,0,0,1,7.8-3.26H224.3a2,2,0,0,1,1.46.59,2.09,2.09,0,0,1,.58,1.48,2,2,0,0,1-.58,1.46,2,2,0,0,1-1.46.61H205.42A6.64,6.64,0,0,0,200.52,6.25Z"/><path class="cls-1" d="M274.66.66a2.07,2.07,0,0,1,.59,1.48V30a2.1,2.1,0,0,1-.59,1.48,2.08,2.08,0,0,1-2.9,0,2.1,2.1,0,0,1-.59-1.48V18.11H247.76V30a2,2,0,0,1-.61,1.48,1.92,1.92,0,0,1-1.44.59,2,2,0,0,1-1.46-.59,2.09,2.09,0,0,1-.58-1.48V2.14a2.06,2.06,0,0,1,.58-1.48,2.07,2.07,0,0,1,1.46-.59,2,2,0,0,1,1.44.59,2,2,0,0,1,.61,1.48V14h23.41V2.14a2.07,2.07,0,0,1,.59-1.48,2,2,0,0,1,1.46-.59A2,2,0,0,1,274.66.66Z"/><path class="cls-1" d="M323.05,2.54a8.23,8.23,0,0,1,2.44,6v1.54a7.75,7.75,0,0,1-2.31,5.67,7.62,7.62,0,0,1-5.63,2.36H298V30a2,2,0,0,1-.6,1.48A2,2,0,0,1,296,32a2,2,0,0,1-1.46-.59,2.06,2.06,0,0,1-.59-1.48V2.14a2,2,0,0,1,2-2.07h21.16A8,8,0,0,1,323.05,2.54Zm-1.64,6a4.24,4.24,0,0,0-1.26-3.07,4.13,4.13,0,0,0-3-1.28H298V14h19.55a3.74,3.74,0,0,0,2.73-1.13,3.85,3.85,0,0,0,1.13-2.76Z"/><path class="cls-1" d="M408.64,4a13.17,13.17,0,0,1,3.94,9.62v4.76A13.2,13.2,0,0,1,408.64,28a12.89,12.89,0,0,1-9.48,4H383a2,2,0,0,1-1.44-.61A2,2,0,0,1,381,30V2.12a2,2,0,0,1,.61-1.46A1.87,1.87,0,0,1,383,.05h16.13A12.82,12.82,0,0,1,408.64,4Zm-.16,9.62A9.1,9.1,0,0,0,405.74,7a8.88,8.88,0,0,0-6.58-2.78H385.08v23.7h14.08a8.88,8.88,0,0,0,6.58-2.78,9.18,9.18,0,0,0,2.74-6.69Z"/><path class="cls-1" d="M481.74,20.22c0-5.49-1.81-12-10.42-12s-10.42,6.56-10.42,12,1.81,12,10.42,12S481.74,25.7,481.74,20.22ZM471.32,30c-5.59,0-8.3-3.22-8.3-9.85s2.71-9.82,8.3-9.82,8.27,3.21,8.27,9.82S476.88,30,471.32,30Z"/><path class="cls-1" d="M509.35,14.27c0-4.72-4-5.72-7.43-5.72H490.29v2.2h11.63c3.13,0,5,1.61,5,4.32,0,1.92-.88,4.21-5.05,4.21h-6.63v1.78H502c4.55,0,5,2.94,5,4.21,0,2.75-1.87,4.39-5,4.39H490.25v2.2H502c4.77,0,7.39-2,7.39-5.72,0-2.54-.93-4.06-3-4.94l-2.49-1.06,2.5-1C508.41,18.26,509.35,16.72,509.35,14.27Z"/><path class="cls-1" d="M451.52,24.85H437.84c-2.64,0-2.85-1.83-2.85-2.39a2.75,2.75,0,0,1,.75-1.93l6.95-8.28a3.61,3.61,0,0,1,3.18-1.5h6.39c-.33-1.56-1.34-2.2-3.35-2.2h-2.85c-2.7,0-3.66.8-5.07,2.48l-7.39,8.83a4.72,4.72,0,0,0-1.33,3.4c0,1.59.37,3.29,4.77,3.29h13.12v5.31h2.23v-7h-.87Z"/><polygon class="cls-1" points="448.01 11.89 448.01 11.89 448.01 11.91 448.01 11.91 448.01 11.89"/><path class="cls-1" d="M79,29l-9.5-18.76-2.24,4.66L73.89,28h-21L63.08,6.71h0l2.25-4.66-.46-.9a2,2,0,0,0-3.66,0L47.78,29.05a2.1,2.1,0,0,0-.08,1.59,2,2,0,0,0,1,1.19,2.11,2.11,0,0,0,.84.2H77.36a2,2,0,0,0,.76-.22,2.09,2.09,0,0,0,1-1.21A2,2,0,0,0,79,29Z"/><path class="cls-1" d="M364.83,29l-9.5-18.76-2.24,4.66L359.73,28H338.68L348.92,6.71h0l2.24-4.66-.45-.9a2,2,0,0,0-3.66,0L333.62,29.05a2.1,2.1,0,0,0-.08,1.59,2,2,0,0,0,1,1.19,2.07,2.07,0,0,0,.84.2H363.2a2,2,0,0,0,.76-.22,2.09,2.09,0,0,0,1-1.21A2,2,0,0,0,364.83,29Z"/><text class="cls-2" transform="translate(173.92 68.21) scale(1.35 1)">LAUNCH BIG</text></g></g></svg>