<svg width="1006" height="68" viewBox="0 0 1006 68" fill="none" xmlns="http://www.w3.org/2000/svg">
<path d="M61.753 57.0993C62.5176 57.8688 62.9468 58.9097 62.9468 59.9947C62.9468 61.0796 62.5176 62.1205 61.753 62.89C61.3922 63.2781 60.953 63.585 60.4646 63.7903C59.9762 63.9956 59.4497 64.0947 58.9201 64.081H4.72672C4.19711 64.0947 3.67063 63.9956 3.18223 63.7903C2.69383 63.585 2.25466 63.2781 1.89389 62.89C1.49852 62.5131 1.18231 62.061 0.963771 61.5603C0.745231 61.0597 0.628755 60.5204 0.621162 59.9741V5.10691C0.618038 4.56642 0.721601 4.03063 0.925913 3.53027C1.13022 3.0299 1.43127 2.5748 1.81177 2.19106C2.18666 1.79873 2.64003 1.48988 3.1423 1.28467C3.64457 1.07945 4.18445 0.982477 4.72672 1.00008C5.26704 0.996953 5.80266 1.10055 6.30287 1.30492C6.80308 1.5093 7.25805 1.81043 7.64167 2.19106C8.02218 2.5748 8.32322 3.0299 8.52753 3.53027C8.73184 4.03063 8.83541 4.56642 8.83228 5.10691V55.9084H58.9201C59.4487 55.9022 59.9728 56.0048 60.4601 56.2097C60.9474 56.4145 61.3875 56.7174 61.753 57.0993V57.0993Z" fill="#303030"/>
<path d="M249.582 5.10708C249.97 5.48743 250.279 5.94101 250.49 6.44153C250.702 6.94205 250.812 7.47957 250.814 8.02293V44.2451C250.859 47.24 250.292 50.2125 249.148 52.9806C248.005 55.7488 246.308 58.2543 244.163 60.3439C242.122 62.4848 239.661 64.1808 236.934 65.3257C234.207 66.4705 231.273 67.0395 228.316 66.997H210.949C207.986 67.0402 205.045 66.4718 202.312 65.327C199.578 64.1823 197.109 62.4859 195.061 60.3439C192.921 58.2523 191.231 55.7454 190.094 52.9771C188.958 50.2088 188.398 47.2374 188.451 44.2451V7.94079C188.421 6.90024 188.788 5.8874 189.477 5.10708C189.842 4.72508 190.283 4.42226 190.77 4.21739C191.257 4.01252 191.781 3.90997 192.31 3.9161C192.85 3.91298 193.386 4.01657 193.886 4.22095C194.386 4.42532 194.841 4.72646 195.225 5.10708C195.978 5.88878 196.392 6.93718 196.374 8.02293V44.2451C196.323 46.1522 196.661 48.0497 197.366 49.822C198.072 51.5942 199.132 53.2041 200.48 54.5533C201.803 55.9025 203.39 56.9637 205.142 57.6704C206.894 58.3771 208.773 58.7141 210.662 58.6601H228.028C229.916 58.7116 231.795 58.3735 233.547 57.667C235.298 56.9604 236.886 55.9005 238.21 54.5533C239.551 53.1984 240.605 51.5876 241.31 49.8167C242.016 48.0457 242.357 46.151 242.316 44.2451V7.94079C242.316 6.8516 242.748 5.80701 243.518 5.03683C244.288 4.26665 245.332 3.83397 246.421 3.83397C247.01 3.78995 247.602 3.88184 248.15 4.10257C248.698 4.3233 249.188 4.66696 249.582 5.10708V5.10708Z" fill="#303030"/>
<path d="M348.772 5.10683C349.154 5.47242 349.457 5.91258 349.662 6.40003C349.867 6.88748 349.969 7.41182 349.963 7.94054V62.8078C349.954 63.6069 349.713 64.3861 349.268 65.0499C348.823 65.7138 348.194 66.2333 347.459 66.545C346.974 66.7876 346.44 66.9142 345.898 66.9146C344.816 66.8992 343.783 66.4563 343.025 65.6825L295.687 17.7559V62.931C295.707 63.4676 295.611 64.0021 295.406 64.4982C295.2 64.9943 294.89 65.4403 294.497 65.8057C293.749 66.5697 292.733 67.0117 291.664 67.0378C291.132 67.0387 290.606 66.9297 290.119 66.7177C289.632 66.5056 289.193 66.1952 288.831 65.8057C288.433 65.4423 288.116 64.9977 287.904 64.5018C287.692 64.006 287.588 63.4703 287.6 62.931V7.8584C287.6 7.05226 287.838 6.26415 288.283 5.59228C288.729 4.92042 289.362 4.39451 290.104 4.08012C290.856 3.80354 291.673 3.75338 292.454 3.93583C293.235 4.11828 293.945 4.52536 294.497 5.10683L341.875 52.9514V7.77626C341.896 6.77062 342.308 5.81285 343.025 5.10683C343.388 4.70813 343.832 4.39188 344.328 4.17937C344.824 3.96685 345.359 3.86299 345.898 3.87478C346.439 3.85465 346.977 3.95472 347.474 4.16778C347.971 4.38083 348.414 4.70156 348.772 5.10683V5.10683Z" fill="#303030"/>
<path d="M396.233 16.0313C394.922 17.2888 393.882 18.8007 393.176 20.4743C392.47 22.1479 392.113 23.948 392.127 25.7645V44.9023C392.113 46.7249 392.469 48.5314 393.175 50.2118C393.881 51.8922 394.921 53.4113 396.233 54.6765C397.467 55.9949 398.962 57.0412 400.623 57.7484C402.285 58.4555 404.075 58.8081 405.881 58.7834H443.118C444.189 58.7769 445.221 59.1896 445.992 59.9333C446.373 60.317 446.674 60.7721 446.878 61.2725C447.082 61.7728 447.186 62.3086 447.183 62.8491C447.178 63.9265 446.751 64.959 445.992 65.7239C445.234 66.4977 444.201 66.9405 443.118 66.9559H405.881C403.031 66.9664 400.209 66.3923 397.589 65.2692C394.969 64.1461 392.607 62.4978 390.649 60.4261C388.599 58.3995 386.979 55.9801 385.886 53.3128C384.793 50.6455 384.248 47.7849 384.285 44.9023V25.6413C384.272 22.7803 384.827 19.9452 385.92 17.3011C387.012 14.6571 388.62 12.257 390.649 10.2407C392.613 8.18184 394.977 6.5475 397.597 5.43853C400.217 4.32956 403.036 3.7695 405.881 3.79293H443.118C443.654 3.78111 444.186 3.8809 444.68 4.08594C445.175 4.29098 445.622 4.59679 445.992 4.98391C446.757 5.75338 447.186 6.79426 447.186 7.87923C447.186 8.96419 446.757 10.0051 445.992 10.7745C445.622 11.1617 445.175 11.4675 444.68 11.6725C444.186 11.8776 443.654 11.9773 443.118 11.9655H405.881C404.078 11.9356 402.29 12.2816 400.629 12.9817C398.967 13.6817 397.47 14.7203 396.233 16.0313V16.0313Z" fill="#303030"/>
<path d="M542.555 5.10689C543.309 5.8886 543.722 6.93699 543.705 8.02274V62.8078C543.722 63.8936 543.309 64.942 542.555 65.7237C541.79 66.4639 540.767 66.8777 539.702 66.8777C538.637 66.8777 537.614 66.4639 536.849 65.7237C536.468 65.3399 536.167 64.8848 535.963 64.3845C535.758 63.8841 535.655 63.3483 535.658 62.8078V39.44H489.429V62.8078C489.427 63.3512 489.317 63.8887 489.106 64.3892C488.894 64.8897 488.586 65.3433 488.198 65.7237C487.837 66.1118 487.398 66.4187 486.909 66.624C486.421 66.8293 485.894 66.9284 485.365 66.9147C484.276 66.9147 483.232 66.482 482.462 65.7118C481.692 64.9416 481.259 63.897 481.259 62.8078V7.94061C481.242 6.85486 481.655 5.80646 482.409 5.02476C483.174 4.26605 484.206 3.83831 485.283 3.83378C485.812 3.82003 486.339 3.91911 486.827 4.12445C487.316 4.32978 487.755 4.63667 488.116 5.02476C488.515 5.39611 488.832 5.84799 489.044 6.35059C489.256 6.8532 489.36 7.39512 489.347 7.94061V31.2674H535.576V7.94061C535.576 6.85141 536.008 5.80682 536.778 5.03664C537.548 4.26646 538.593 3.83378 539.681 3.83378C540.221 3.84677 540.752 3.96589 541.245 4.18434C541.738 4.40278 542.183 4.71627 542.555 5.10689V5.10689Z" fill="#303030"/>
<path d="M637.927 8.72104C639.497 10.2587 640.737 12.1009 641.57 14.1347C642.403 16.1685 642.812 18.3511 642.772 20.5487V23.5878C642.801 25.6666 642.413 27.7302 641.63 29.6561C640.848 31.5821 639.686 33.3311 638.215 34.7994C636.776 36.2934 635.047 37.4761 633.133 38.2744C631.219 39.0726 629.162 39.4694 627.088 39.4401H588.537V62.808C588.537 63.8972 588.105 64.9418 587.335 65.7119C586.565 66.4821 585.521 66.9148 584.432 66.9148C583.891 66.9179 583.356 66.8143 582.856 66.61C582.355 66.4056 581.9 66.1044 581.517 65.7238C580.763 64.9421 580.35 63.8937 580.367 62.808V7.94075C580.35 6.855 580.763 5.8066 581.517 5.0249C581.9 4.64427 582.355 4.34314 582.856 4.13876C583.356 3.93439 583.891 3.83079 584.432 3.83392H626.144C628.34 3.78245 630.523 4.1906 632.552 5.03219C634.581 5.87379 636.412 7.13026 637.927 8.72104V8.72104ZM634.725 20.5487C634.743 19.4246 634.53 18.3087 634.099 17.2703C633.668 16.2318 633.029 15.2929 632.22 14.5117C631.448 13.7008 630.517 13.0566 629.486 12.6187C628.456 12.1808 627.346 11.9585 626.226 11.9654H588.537V31.2675H627.088C628.089 31.2884 629.084 31.1021 630.009 30.7205C630.935 30.3389 631.771 29.7701 632.467 29.0498C633.191 28.3379 633.764 27.4873 634.152 26.5488C634.54 25.6103 634.735 24.6033 634.725 23.5878V20.5487Z" fill="#303030"/>
<path d="M806.789 11.6779C809.314 14.1414 811.308 17.0953 812.65 20.3582C813.991 23.6211 814.651 27.1239 814.589 30.6514V40.0561C814.646 43.5829 813.984 47.0843 812.643 50.3465C811.302 53.6087 809.31 56.5632 806.789 59.0296C804.381 61.554 801.481 63.5565 798.268 64.913C795.054 66.2694 791.596 66.9507 788.109 66.9147H756.291C755.758 66.9206 755.231 66.8139 754.742 66.6016C754.254 66.3893 753.816 66.0761 753.458 65.6827C752.684 64.9244 752.241 63.8911 752.226 62.8079V7.85853C752.252 6.78959 752.694 5.77298 753.458 5.02482C753.806 4.61814 754.242 4.2959 754.732 4.08246C755.223 3.86902 755.756 3.76996 756.291 3.79277H788.109C791.599 3.73689 795.063 4.4092 798.279 5.76682C801.495 7.12444 804.394 9.13758 806.789 11.6779V11.6779ZM806.502 30.6514C806.568 28.2023 806.132 25.7656 805.221 23.4913C804.311 21.217 802.944 19.1533 801.205 17.4274C799.541 15.6623 797.529 14.2617 795.296 13.3145C793.063 12.3672 790.657 11.8939 788.232 11.9243H760.15V58.7421H787.944C790.418 58.813 792.878 58.3592 795.164 57.4107C797.449 56.4623 799.508 55.0405 801.205 53.239C802.955 51.524 804.338 49.4709 805.269 47.2046C806.201 44.9383 806.662 42.5062 806.625 40.0561L806.502 30.6514Z" fill="#303030"/>
<path d="M951.018 43.5881C951.018 32.7461 947.446 19.8096 930.49 19.8096C913.534 19.8096 909.962 32.7461 909.962 43.5881C909.962 54.4301 913.493 67.3256 930.49 67.3256C947.487 67.3256 951.018 54.3891 951.018 43.5881ZM930.49 62.9723C919.487 62.9723 914.067 56.6068 914.067 43.547C914.067 30.4873 919.446 24.1628 930.49 24.1628C941.534 24.1628 946.912 30.4873 946.912 43.547C946.912 56.6068 941.452 62.9723 930.449 62.9723H930.49Z" fill="#303030"/>
<path d="M1005.46 31.8836C1005.46 22.5201 997.492 20.5898 990.841 20.5898H967.891V24.902H990.841C997 24.902 1000.69 28.1053 1000.69 33.4442C1000.69 37.2225 998.97 41.6579 990.759 41.6579H977.744V45.1487H991.046C1000.04 45.1487 1001.02 50.9804 1001.02 53.3623C1001.02 58.7833 997.328 62.0277 991.129 62.0277H967.891V66.7095H991.129C1000.53 66.7095 1005.7 62.6027 1005.7 55.4568C1005.93 53.3984 1005.47 51.3225 1004.39 49.5539C1003.32 47.7854 1001.68 46.4239 999.75 45.6826L994.824 43.6292L999.75 41.5347C1001.64 40.7979 1003.24 39.4461 1004.27 37.6961C1005.31 35.9461 1005.72 33.8992 1005.46 31.8836V31.8836Z" fill="#303030"/>
<path d="M891.528 52.746H864.513C859.34 52.746 858.93 49.132 858.93 48.0232C858.897 46.6121 859.412 45.2434 860.367 44.2038L874.079 27.7765C874.798 26.7896 875.754 26.0009 876.86 25.4838C877.966 24.9667 879.184 24.7382 880.402 24.8196H892.965C892.349 21.7395 890.337 20.5074 886.355 20.5074H880.771C878.772 20.3402 876.765 20.7316 874.974 21.638C873.184 22.5443 871.68 23.9301 870.631 25.6409L856.056 43.0539C855.187 43.9332 854.506 44.9801 854.054 46.1309C853.603 47.2816 853.39 48.5123 853.428 49.748C853.428 52.9103 854.167 56.2779 862.83 56.2779H888.695V66.7092H893.129V52.746H891.528Z" fill="#303030"/>
<path d="M156.632 61.0012L137.87 24.0397L133.313 33.1569L146.41 58.9888H104.861L125.061 16.9349L129.495 7.73561L128.591 5.96967C128.24 5.31771 127.718 4.77307 127.082 4.39348C126.446 4.01389 125.719 3.81348 124.979 3.81348C124.238 3.81348 123.511 4.01389 122.875 4.39348C122.239 4.77307 121.717 5.31771 121.366 5.96967L95.049 61.0422C94.6633 62.0469 94.6633 63.1588 95.049 64.1634C95.2028 64.6783 95.4658 65.1539 95.8201 65.5579C96.1743 65.9619 96.6115 66.2847 97.1018 66.5043C97.6334 66.7421 98.2037 66.8813 98.7851 66.915H153.225C153.898 66.8699 154.55 66.6595 155.122 66.3025C155.695 65.9455 156.17 65.4529 156.507 64.8682C156.844 64.2836 157.032 63.6249 157.054 62.9504C157.075 62.2759 156.931 61.6064 156.632 61.0012Z" fill="#303030"/>
<path d="M720.367 61.0011L701.645 24.0396L697.211 33.2389L710.308 59.0709H668.801L689 17.017L693.393 7.81766L692.531 6.05172C692.19 5.37445 691.668 4.8049 691.023 4.40621C690.378 4.00752 689.635 3.79527 688.877 3.79297C688.129 3.81408 687.4 4.03952 686.771 4.44488C686.141 4.85024 685.634 5.4201 685.305 6.09279L658.783 61.1243C658.398 62.1289 658.398 63.2408 658.783 64.2455C658.947 64.7619 659.218 65.2376 659.579 65.6412C659.94 66.0448 660.382 66.367 660.877 66.5864C661.393 66.8285 661.951 66.968 662.519 66.9971H717.329C717.846 66.9414 718.347 66.7881 718.807 66.5453C719.749 66.0384 720.456 65.1838 720.777 64.1633C720.949 63.639 721.002 63.0828 720.931 62.5356C720.86 61.9884 720.667 61.4641 720.367 61.0011Z" fill="#303030"/>
</svg>
